<svg xmlns="http://www.w3.org/2000/svg" width="65" height="65" viewBox="0 0 65 65">
  <g id="Grupo_2" data-name="Grupo 2" transform="translate(-0.92 1.36)">
    <path id="Caminho_1" data-name="Caminho 1" d="M29.24,16.143c-6.4.08-11.44,2.625-14.48,7.717V-1.36H.92v65H14.76V38.5c0-5.887,3.36-10.184,8.8-10.184,4.72,0,7.6,3.1,7.6,8.115V63.64H45V32.612C45,22.587,38.76,16.143,29.24,16.143Z" fill="#f61067"/>
    <path id="Caminho_2" data-name="Caminho 2" d="M58.9,47.28a6.341,6.341,0,0,0-6.64,6.64,6.362,6.362,0,0,0,6.64,6.72,6.426,6.426,0,0,0,6.72-6.72A6.406,6.406,0,0,0,58.9,47.28Z" transform="translate(0.301 3)" fill="#f61067"/>
  </g>
</svg>
